<?xml version="1.0" encoding="UTF-8" standalone="no"?>
<!-- Created with Inkscape (http://www.inkscape.org/) -->

<svg
   width="96.863792mm"
   height="98.678001mm"
   viewBox="0 0 96.863798 98.678002"
   version="1.1"
   id="svg1"
   xml:space="preserve"
   inkscape:version="1.4.3 (0d15f75, 2025-12-25)"
   sodipodi:docname="Logo Redonda Pura Encantarys.svg"
   inkscape:export-filename="Perfil Encantarys.png"
   inkscape:export-xdpi="96"
   inkscape:export-ydpi="96"
   xmlns:inkscape="http://www.inkscape.org/namespaces/inkscape"
   xmlns:sodipodi="http://sodipodi.sourceforge.net/DTD/sodipodi-0.dtd"
   xmlns="http://www.w3.org/2000/svg"
   xmlns:svg="http://www.w3.org/2000/svg"><sodipodi:namedview
     id="namedview1"
     pagecolor="#ffffff"
     bordercolor="#000000"
     borderopacity="0.25"
     inkscape:showpageshadow="2"
     inkscape:pageopacity="0.0"
     inkscape:pagecheckerboard="0"
     inkscape:deskcolor="#d1d1d1"
     inkscape:document-units="mm"
     inkscape:zoom="0.89619809"
     inkscape:cx="119.39325"
     inkscape:cy="266.1242"
     inkscape:window-width="1366"
     inkscape:window-height="705"
     inkscape:window-x="-8"
     inkscape:window-y="-8"
     inkscape:window-maximized="1"
     inkscape:current-layer="layer1" /><defs
     id="defs1" /><g
     inkscape:label="Camada 1"
     inkscape:groupmode="layer"
     id="layer1"
     transform="translate(-21.417307,-57.985733)" /><g
     inkscape:groupmode="layer"
     id="layer2"
     inkscape:label="Círculo Amarelo"
     style="display:inline"
     transform="translate(-21.417307,-57.985733)"><circle
       style="fill:#c9a84c;fill-opacity:1;stroke-width:0.189538"
       id="path1"
       cx="69.56041"
       cy="107.59315"
       r="41.240898" /></g><g
     inkscape:groupmode="layer"
     id="layer3"
     inkscape:label="Desenho de Dentro &quot;E&quot;"
     style="display:inline"
     transform="translate(-21.417307,-57.985733)"><path
       id="path2"
       style="display:inline;fill:#815918;fill-opacity:1;stroke-width:0.189538"
       d="m 76.924838,97.415097 c -0.03604,0.136697 -0.07655,0.284297 -0.121798,0.441274 0.01433,-0.04004 0.02586,-0.0757 0.03446,-0.106616 0.02758,-0.09922 0.05738,-0.214273 0.08737,-0.334658 z m -0.121798,0.441274 c -0.20607,0.576098 -0.997934,2.069012 -2.1597,3.700449 -1.242516,1.74482 -2.828665,2.90794 -4.361982,4.1769 -1.53331,1.26894 -8.221915,5.36657 -10.601198,7.24355 -2.379283,1.877 -4.150495,4.7584 -5.128646,6.37102 -0.978148,1.61263 -1.401203,4.46793 -1.269021,6.50353 0.132183,2.03562 0.661141,2.80222 0.793324,3.1459 0.132181,0.34368 -0.238069,0.66099 -0.872544,1.26902 -0.634477,0.60804 -1.586285,1.00446 -2.352943,1.11022 -0.766659,0.10574 -1.876876,0.10587 -1.876876,0.10587 l 0.02666,0.79295 40.051114,0.0267 2.934522,-16.1526 h -0.97842 c 0,0 -0.211335,0.97802 -0.475696,1.87687 -0.264367,0.89884 -1.057334,3.30456 -3.225123,5.76316 -2.167789,2.45859 -3.780479,3.11944 -5.816091,4.04472 -2.035604,0.92529 -4.256324,0.97805 -5.498839,0.97805 -1.242517,0 -9.252586,0.0529 -9.252586,0.0529 l -0.02665,-18.84908 h 8.486288 c 0.793096,0 1.295353,0.13216 2.696488,0.44941 1.401132,0.31724 3.463021,1.85055 4.123939,3.7804 0.660913,1.92987 0.687447,3.88628 0.687447,3.88628 l 0.792953,-0.0267 0.07922,-19.298521 -0.845892,-0.0267 c 0,0 -0.132178,1.798011 -0.449412,3.146271 -0.317236,1.34827 -0.845836,1.90317 -1.559622,2.66984 -0.713787,0.76665 -1.401055,1.32182 -2.511387,1.6655 -1.110331,0.34368 -2.088622,0.44964 -3.304703,0.47606 -1.216075,0.0265 -4.679232,0.0527 -4.679232,0.0527 0,0 3.278069,-2.5642 4.811387,-4.89062 0.874345,-1.32661 1.439186,-2.919714 1.763227,-4.043998 z M 64.330517,113.60771 c 0.03176,6.2e-4 0.06528,0.003 0.100323,0.006 0.560802,0.0561 0.747598,0.39244 0.728909,0.80369 -0.01869,0.41125 -0.448528,0.69169 -0.990635,0.56085 -0.542108,-0.13087 -0.579722,-0.63563 -0.579722,-0.63563 0,0 -1.046809,-0.16805 -2.336655,0.0937 -1.289846,0.26171 -2.916005,1.4767 -2.916005,1.4767 0,0 1.084041,-1.533 2.766448,-1.94426 1.682406,-0.41124 2.635769,-0.0744 2.635769,-0.0744 0,0 0.115106,-0.29579 0.591568,-0.28653 z m -4.264616,3.72118 c 0.663615,-0.005 1.186861,0.13549 1.56073,0.21026 0.747735,0.14956 2.205977,0.78519 2.205977,0.78519 0,0 -1.159148,1.71997 -2.243367,2.57987 -1.084219,0.85989 -2.50482,1.1213 -3.92552,1.00915 -1.420699,-0.11217 -1.607748,-0.22399 -1.645135,-0.41092 -0.03739,-0.18693 0.747878,-1.08432 2.01903,-1.53297 1.271154,-0.44863 2.542112,-0.82257 2.542112,-0.82257 0,0 -1.607456,0.0561 -2.72906,0.52345 -1.121605,0.46734 -2.692039,1.53297 -2.692039,1.53297 0,0 0.635752,-2.20605 2.505092,-3.21549 0.934671,-0.50472 1.738564,-0.65426 2.40218,-0.65894 z m -5.281167,4.51006 v 3.14034 c 0,1.7198 -0.299114,2.87862 -0.299114,2.87862 0,0 -0.373527,-0.85973 -0.410915,-2.80385 -0.03738,-1.94411 0.710029,-3.21511 0.710029,-3.21511 z"
       inkscape:label="E BAIXO" /></g><g
     inkscape:groupmode="layer"
     id="layer5"
     inkscape:label="FOLHA 2"
     style="display:inline"
     transform="translate(-21.417307,-57.985733)"><path
       id="path7"
       style="display:inline;fill:#815918;fill-opacity:1;stroke-width:0.189538"
       d="m 87.279859,82.786945 c 0,0 -0.581653,0.21122 -2.167846,0.687081 -1.586185,0.475853 -4.864334,0.581567 -4.864334,0.581567 H 48.73542 v 1.004703 c 0,0 3.225315,-0.264181 4.600012,1.057643 1.374696,1.321818 1.374894,3.225066 1.374894,3.489434 0,1.004582 0.158442,27.493847 0.158442,27.493847 0,0 1.057421,-1.95625 2.696482,-3.59531 0.231135,-0.23114 0.497101,-0.46959 0.78814,-0.71188 -0.07913,0.0369 -0.126442,0.0509 -0.126976,0.0511 0,0 1.110224,-1.53326 1.427461,-2.37924 0.317239,-0.84596 0.396478,-2.24707 0.396478,-2.24707 0,0 -0.555049,-0.0529 -0.660794,-0.50234 -0.105746,-0.44942 5.9e-5,-0.84608 0.502351,-1.0047 0.502293,-0.15862 0.713795,0.39655 0.766668,0.76666 0.05287,0.37011 -0.185095,0.63452 -0.185095,0.63452 0,0 0.07925,1.00464 -0.05294,1.71843 -0.132185,0.71378 -0.845882,1.8242 -1.295303,2.35294 -1.83e-4,2.1e-4 -1.83e-4,5.3e-4 -3.71e-4,7.2e-4 0.233562,-0.17618 0.475894,-0.35255 0.723727,-0.52827 -0.159036,0.0887 -0.240625,0.12475 -0.240625,0.12475 0,0 2.878696,-2.2803 4.0003,-6.2433 1.121605,-3.96302 0.112129,-5.682897 -0.448675,-6.430634 -0.5608,-0.747733 -1.794441,-1.757287 -3.514236,-1.532964 -1.719792,0.224315 -2.729432,1.645224 -2.766818,2.991158 -0.03739,1.34593 0.859992,1.9439 1.383408,2.09345 0.523416,0.14954 1.271242,0.0747 1.271242,0.0747 0,0 -0.672997,-0.37395 -0.486063,-1.0843 0.186934,-0.71035 0.485738,-0.7478 1.121313,-0.71041 0.635576,0.0374 0.897322,0.8974 0.560842,1.57037 -0.336483,0.67296 -1.009207,0.97214 -1.906492,0.93473 -0.897282,-0.0373 -2.019067,-0.26185 -2.579871,-2.1312 -0.560802,-1.869344 0.673061,-3.289937 1.420799,-3.738576 0.747736,-0.448645 2.617021,-1.196396 4.486362,-0.224337 1.869341,0.972058 2.542495,2.766553 2.729429,4.149863 0.186932,1.38332 -0.112215,3.58914 -0.785179,5.122 -0.672962,1.53287 -1.346105,2.91645 -2.57987,3.88851 -0.05354,0.0422 -0.105915,0.0829 -0.157332,0.12254 1.1173,-0.73084 2.20615,-1.3955 2.975977,-1.88539 1.744809,-1.11033 3.383933,-2.00904 3.383933,-2.00904 l -0.898831,-0.0529 -0.158812,-0.0529 V 87.439843 h 10.09885 c 0,0 1.163256,-0.105679 2.167845,0.05294 1.004582,0.158619 3.066398,0.581705 4.652584,1.903529 1.586191,1.321825 2.485295,3.066506 2.643913,4.441198 0.158617,1.374699 0.317257,3.119616 0.317257,3.119616 l 0.792945,-0.105878 z"
       inkscape:label="E CIMA" /></g><g
     inkscape:groupmode="layer"
     id="layer4"
     inkscape:label="FOLHA 1"
     transform="translate(-21.417307,-57.985733)"><path
       style="fill:#815918;fill-opacity:1;stroke-width:0.189538"
       d="m 53.309083,119.50708 c 0,0 0.74022,-2.37928 -0.07931,-4.12408 -0.81953,-1.74482 -2.273535,-3.09307 -3.780415,-3.75399 -1.506877,-0.66091 -2.828703,-0.89883 -2.828703,-0.89883 0,0 -0.07931,1.82412 0.343675,3.72754 0.422984,1.90342 1.55975,2.93445 2.458592,3.64823 0.898839,0.71378 3.013757,1.55976 3.013757,1.55976 0,0 -0.237927,-1.85056 -1.242514,-3.51606 -1.004586,-1.66549 -2.00917,-2.59077 -2.00917,-2.59077 0,0 1.982733,1.21608 2.722955,2.37928 0.740222,1.16321 0.89884,1.74481 1.083895,2.37928 0.185055,0.63448 0.317238,1.18964 0.317238,1.18964 z"
       id="path3"
       inkscape:label="FOLHA ESQUERDA" /><path
       style="fill:#815918;fill-opacity:1;stroke-width:0.189538"
       d="m 72.501964,102.74635 c 0,0 1.506877,-1.32183 1.242508,-3.251697 -0.26436,-1.929864 -1.480442,-2.696526 -1.480442,-2.696526 0,0 -1.163199,1.216081 -1.216074,2.775836 -0.05287,1.559747 1.004588,2.987327 1.004588,2.987327 0,0 0.422979,-0.84597 0.422979,-1.95631 0,-1.110327 0,-1.665501 0,-1.665501 0,0 0.396551,0.951714 0.343676,1.718371 -0.05287,0.76667 -0.317235,2.0885 -0.317235,2.0885 z"
       id="path4"
       inkscape:label="FOLHA CIMA ESQUERDA" /><path
       style="display:inline;fill:#815918;fill-opacity:1;stroke-width:0.189538"
       d="m 75.991577,101.74176 c 0,0 0.845963,-1.824127 2.352847,-1.824127 1.506876,0 2.617207,0.660917 2.617207,0.660917 0,0 -0.951713,1.13677 -2.062045,1.77125 -1.110332,0.63448 -2.987318,-0.0529 -2.987318,-0.0529 0,0 0.449419,-0.5023 1.057456,-0.71379 0.608037,-0.21149 1.216075,-0.34368 1.216075,-0.34368 0,0 -0.766654,0 -1.242509,0.10575 -0.47586,0.10574 -0.951713,0.39655 -0.951713,0.39655 z"
       id="path5"
       inkscape:label="folha direita" /><path
       style="fill:#815918;fill-opacity:1;stroke-width:0.189538"
       d="m 77.947872,94.736081 c 0,0 0.02643,-0.71378 0.502295,-1.110331 0.47586,-0.396545 1.242516,-0.502295 1.242516,-0.502295 0,0 -0.793097,-0.158617 -1.295392,-0.608037 -0.502287,-0.44942 -0.502287,-1.348258 -0.502287,-1.348258 0,0 -0.10575,0.951714 -0.502294,1.427567 -0.396551,0.475861 -1.401133,0.475861 -1.401133,0.475861 0,0 0.951713,0.211492 1.348258,0.608037 0.396551,0.396544 0.608037,1.057456 0.608037,1.057456 z"
       id="path6"
       inkscape:label="BRILHO" /></g></svg>
