<?xml version="1.0" encoding="UTF-8" standalone="no"?>
<!-- Created with Inkscape (http://www.inkscape.org/) -->

<svg
   width="275.34631mm"
   height="88.482002mm"
   viewBox="0 0 275.34633 88.482003"
   version="1.1"
   id="svg1"
   xml:space="preserve"
   inkscape:version="1.4.3 (0d15f75, 2025-12-25)"
   sodipodi:docname="Logomarca Encantarys (fontes vetorizadas).svg"
   xmlns:inkscape="http://www.inkscape.org/namespaces/inkscape"
   xmlns:sodipodi="http://sodipodi.sourceforge.net/DTD/sodipodi-0.dtd"
   xmlns="http://www.w3.org/2000/svg"
   xmlns:svg="http://www.w3.org/2000/svg"><sodipodi:namedview
     id="namedview1"
     pagecolor="#ffffff"
     bordercolor="#000000"
     borderopacity="0.25"
     inkscape:showpageshadow="2"
     inkscape:pageopacity="0.0"
     inkscape:pagecheckerboard="0"
     inkscape:deskcolor="#d1d1d1"
     inkscape:document-units="mm"
     inkscape:zoom="0.44809905"
     inkscape:cx="421.78175"
     inkscape:cy="72.528607"
     inkscape:window-width="1366"
     inkscape:window-height="705"
     inkscape:window-x="-8"
     inkscape:window-y="-8"
     inkscape:window-maximized="1"
     inkscape:current-layer="layer1" /><defs
     id="defs1" /><g
     inkscape:label="Camada 1"
     inkscape:groupmode="layer"
     id="layer1"
     transform="translate(-20.582275,-57.985733)"><path
       style="font-weight:900;font-size:25.7141px;font-family:Cinzel;-inkscape-font-specification:'Cinzel Heavy';fill:#c9a84c;stroke-width:0.133927"
       d="m 134.59624,97.286827 c -0.79714,2.931403 -2.85427,4.654253 -5.32282,4.654253 h -3.18855 v -6.942808 h 2.85426 c 1.59428,0.05143 2.75141,1.208562 2.75141,2.828551 v 0.102856 h 0.25714 v -7.14852 h -0.25714 v 0.128571 c 0,1.619988 -1.15713,2.777123 -2.80283,2.802837 h -2.80284 v -7.174234 h 3.72854 c 2.03142,0.07714 3.21427,1.311419 3.21427,3.342833 v 0.179999 l 0.25714,0.02571 V 84.76406 c -0.46286,0.205713 -1.95427,0.462854 -3.05998,0.462854 h -11.36563 v 0.257141 h 0.30857 c 0.89999,0 1.6457,0.719995 1.6457,1.619988 v 14.271327 c 0,0.87428 -0.74571,1.61999 -1.6457,1.61999 h -0.30857 v 0.25714 h 15.01703 l 0.97714,-5.965673 z m 11.64848,-9.462789 v 0.257141 h 0.43714 c 0.77142,0 1.36285,0.539996 1.36285,1.285705 v 7.199948 L 137.2705,87.489755 h -0.20571 c 0,0 0.28285,0.977135 0.28285,2.69998 v 11.494205 c 0,0.74571 -0.61714,1.2857 -1.38856,1.2857 h -0.41143 v 0.25714 h 8.69137 v -0.25714 h -0.43714 c -0.77142,0 -1.36285,-0.53999 -1.38856,-1.2857 v -7.19995 l 10.79992,9.05136 h 0.20571 c 0,0 -0.28285,-0.89999 -0.28285,-2.77712 V 89.34117 c 0,-0.745709 0.64285,-1.259991 1.38856,-1.259991 h 0.46285 v -0.257141 z m 24.32552,8.999935 c -0.87428,4.165687 -1.61999,5.554247 -5.19425,5.554247 -2.90569,-0.10286 -4.52568,-2.802838 -4.52568,-6.942809 0,-3.985685 1.43999,-6.762808 4.96282,-6.762808 2.13427,0 3.72854,0.951422 4.65425,4.13997 h 0.18 l 0.33428,-4.397111 c -1.15713,-0.462854 -3.1114,-0.899993 -5.60567,-0.899993 -6.1971,0 -9.77136,2.931407 -9.77136,7.997085 0,5.168536 3.72855,7.997086 9.77136,8.022796 3.54854,0 5.27139,-1.25999 6.04281,-2.62284 l -0.66856,-4.088537 z m 9.89989,-9.951357 h -0.20571 c -0.0771,0.771423 -1.02857,2.777123 -1.33714,3.419976 l -5.27139,11.442778 c -0.46285,0.89999 -1.31142,1.23427 -1.95427,1.23427 h -0.20571 v 0.25714 h 5.2971 v -0.23142 h -0.20571 c -0.56571,0 -1.20856,-0.43714 -0.89999,-1.25999 l 0.77142,-1.774277 h 4.78282 l 0.74571,1.722847 c 0.36,0.84856 -0.28285,1.31142 -0.87428,1.31142 h -0.20571 v 0.23142 h 9.02565 v -0.25714 h -0.18 c -0.69428,0 -1.51713,-0.33428 -2.0057,-1.2857 z m -3.49712,11.931343 1.87713,-4.294255 1.87713,4.294255 z m 22.85983,-10.979921 v 0.257141 h 0.43714 c 0.77143,0 1.36285,0.539996 1.36285,1.285705 v 7.199948 l -10.77421,-9.077077 h -0.20571 c 0,0 0.28286,0.977135 0.28286,2.69998 v 11.494205 c 0,0.74571 -0.61714,1.2857 -1.38857,1.2857 h -0.41142 v 0.25714 h 8.69136 v -0.25714 H 197.39 c -0.77142,0 -1.36284,-0.53999 -1.38856,-1.2857 v -7.19995 l 10.79993,9.05136 h 0.20571 c 0,0 -0.28286,-0.89999 -0.28286,-2.77712 V 89.34117 c 0,-0.745709 0.64286,-1.259991 1.38856,-1.259991 h 0.46286 v -0.257141 z m 11.75133,-0.02571 c -0.89999,-0.02571 -2.15999,-0.257141 -2.5457,-0.411426 v 4.859965 h 0.25714 v -0.12857 c 0,-1.954272 1.05428,-3.111406 3.03427,-3.137121 h 1.87713 v 12.651338 c -0.0257,0.77142 -0.61714,1.33713 -1.36285,1.33713 h -0.25714 v 0.25714 h 8.27994 v -0.25714 h -0.25714 c -0.74571,0 -1.36285,-0.56571 -1.36285,-1.33713 V 88.981172 h 1.87713 c 1.97999,0.02572 3.05998,1.182849 3.03426,3.137121 v 0.12857 h 0.25715 v -4.859965 c -0.23143,0.154285 -1.64571,0.385712 -2.57141,0.411426 z m 19.51702,-0.925708 h -0.20571 c -0.0771,0.771423 -1.02857,2.777123 -1.33713,3.419976 l -5.2714,11.442778 c -0.46285,0.89999 -1.31141,1.23427 -1.95427,1.23427 h -0.20571 v 0.25714 h 5.2971 v -0.23142 h -0.20571 c -0.56571,0 -1.20856,-0.43714 -0.89999,-1.25999 l 0.77142,-1.774277 h 4.78282 l 0.74571,1.722847 c 0.36,0.84856 -0.28285,1.31142 -0.87428,1.31142 h -0.20571 v 0.23142 h 9.02565 v -0.25714 h -0.18 c -0.69428,0 -1.51713,-0.33428 -2.0057,-1.2857 z m -3.49712,11.931343 1.87713,-4.294255 1.87713,4.294255 z m 12.67705,-11.005635 v 0.257141 h 0.30857 c 0.69428,0 1.2857,0.56571 1.2857,1.362847 v 12.214198 c 0,0.77142 -0.61714,1.33713 -1.31142,1.33713 h -0.28285 v 0.25714 h 8.25422 v -0.25714 h -0.25714 c -0.56571,0 -1.33713,-0.41142 -1.33713,-1.31142 V 89.032601 h 0.48857 c 0.12857,0 2.13427,-0.128571 2.28855,2.802837 0.0257,0.462853 -0.0257,0.719994 -0.0257,0.822851 -0.23143,2.159984 -1.10571,2.828551 -1.95427,2.828551 h -0.12857 v 0.179998 c 0.12857,0.07714 0.59142,0.257141 0.84856,1.465704 0.25714,1.259991 0.46286,2.211413 1.20856,3.497118 1.49142,2.5457 2.93141,2.59712 5.70854,2.59712 h 3.00854 v -0.25714 c -0.82285,0 -1.31141,-0.12857 -2.28855,-1.61999 -0.79714,-1.20856 -1.25999,-2.262836 -1.61999,-2.905689 -0.43714,-0.797137 -1.49142,-1.954271 -2.80284,-2.288555 2.67427,-0.462854 3.29141,-2.545696 3.29141,-4.114256 0,-3.599974 -3.26569,-4.242826 -5.86282,-4.242826 z m 28.07978,0 v 0.257141 h 0.25714 c 0.61714,0 1.13142,0.719995 0.79714,1.337133 l -3.13712,5.399961 -3.18855,-5.399961 c -0.33429,-0.617138 0.12857,-1.337133 0.77142,-1.337133 h 0.28286 v -0.257141 h -8.99994 v 0.257141 h 0.30857 c 0.89999,0 1.72285,0.56571 2.15998,1.208563 l 4.44854,6.83995 v 5.528532 c -0.0257,0.77142 -0.66856,1.33713 -1.41427,1.33713 h -0.28286 v 0.25714 h 8.40851 v -0.25714 h -0.28285 c -0.77142,0 -1.38856,-0.56571 -1.41428,-1.33713 v -5.554246 l 4.34569,-6.788522 c 0.46285,-0.668567 1.2857,-1.234277 2.21141,-1.234277 h 0.30857 v -0.257141 z m 11.41704,4.654252 c -1.1057,-0.43714 -2.21141,-0.899994 -2.08284,-2.031414 0.10286,-1.054278 1.02856,-1.722845 2.62284,-1.722845 2.05713,0 3.34283,1.131421 3.34283,2.777123 h 0.18 l 0.61714,-3.728544 h -1.74856 c -1.38856,-0.154285 -3.21426,-0.231427 -3.85712,-0.231427 -2.77712,0 -4.52568,1.285705 -4.88567,3.985685 -0.33429,2.314269 0.7457,4.165684 2.95712,5.117106 l 2.69998,1.259991 c 1.8257,0.771423 2.54569,1.542846 2.54569,2.494269 0,0.97713 -0.74571,2.0057 -2.67426,2.0057 -3.05998,-0.0257 -4.78283,-2.33998 -4.67997,-4.679968 h -0.12857 c -0.79714,0.951422 -1.33713,3.214258 -0.79714,4.371398 0.61714,0.77142 2.28856,1.4657 4.93711,1.4657 4.24283,0 6.73709,-1.67141 7.01995,-4.988532 0.18,-2.365698 -1.02856,-3.831401 -2.75141,-4.551396 z"
       id="text8"
       inkscape:label="ENCANTARYS"
       aria-label="Encantarys" /><path
       style="font-size:13.0187px;font-family:Fraunces;-inkscape-font-specification:Fraunces;letter-spacing:5.77164px;fill:#82888e;stroke-width:0.0678059"
       d="m 123.78431,115.79163 q 0.1367,0 0.24735,-0.0456 0.11717,-0.0521 0.18878,-0.0976 0.0781,-0.0456 0.0976,-0.0456 0.013,0 0.026,0.0195 0.013,0.013 0.0326,0.0976 l 0.54028,2.12856 q 0.013,0.0326 0.007,0.0521 -0.007,0.013 -0.0195,0.013 -0.013,0.007 -0.026,0 -0.013,-0.007 -0.0391,-0.0325 -0.39056,-0.7616 -0.72904,-1.19121 -0.33198,-0.43613 -0.66396,-0.61188 -0.32546,-0.17575 -0.6965,-0.17575 h -1.73799 v 8.66394 q 0,0.0781 0.0716,0.11717 0.0781,0.039 0.23434,0.0521 l 0.81366,0.0911 q 0.0391,0 0.0521,0.013 0.013,0.007 0.013,0.026 0,0.013 -0.013,0.026 -0.013,0.013 -0.0391,0.013 h -3.31977 q -0.026,0 -0.0391,-0.013 -0.013,-0.013 -0.013,-0.026 0,-0.0326 0.0651,-0.0391 l 0.60537,-0.0911 q 0.11717,-0.013 0.16925,-0.0521 0.0586,-0.0391 0.0586,-0.11717 v -8.43612 q 0,-0.0781 -0.0586,-0.11717 -0.0521,-0.0391 -0.16925,-0.0521 l -0.60537,-0.0911 q -0.0651,-0.007 -0.0651,-0.0391 0,-0.0195 0.013,-0.026 0.013,-0.013 0.0391,-0.013 z m -3.15053,4.54352 h 1.90724 q 0.51424,0 0.76811,-0.22131 0.25386,-0.22783 0.26037,-0.82669 0.007,-0.0326 0.013,-0.0391 0.013,-0.013 0.0195,-0.013 0.0456,-0.007 0.0651,0.0716 l 0.52726,2.08299 q 0.013,0.026 0.007,0.0456 -0.007,0.0195 -0.026,0.026 -0.007,0 -0.026,0 -0.013,-0.007 -0.0391,-0.026 -0.24736,-0.38405 -0.44915,-0.59886 -0.20179,-0.21481 -0.42311,-0.29943 -0.22131,-0.0911 -0.54027,-0.0911 h -2.06347 z m 12.64552,-0.14971 h 2.03091 q 0.49471,0 0.71603,-0.22132 0.22783,-0.22783 0.26038,-0.82669 0.006,-0.0325 0.013,-0.039 0.013,-0.013 0.026,-0.013 0.0391,-0.013 0.0586,0.0651 l 0.6314,2.08299 q 0.013,0.0326 0.007,0.0521 -0.007,0.0195 -0.0195,0.026 -0.013,0 -0.0325,0 -0.013,-0.007 -0.0326,-0.026 -0.26037,-0.39707 -0.46867,-0.60537 -0.20179,-0.21481 -0.43613,-0.29943 -0.23434,-0.0846 -0.56631,-0.0846 h -2.18714 z m -1.95281,-4.35476 q 0,-0.0195 0.013,-0.026 0.013,-0.013 0.0391,-0.013 h 5.31163 q 0.13669,0 0.24735,-0.0456 0.11717,-0.0521 0.18877,-0.0976 0.0781,-0.0456 0.0976,-0.0456 0.0195,0 0.026,0.0195 0.013,0.013 0.0325,0.0976 l 0.54678,2.12856 q 0.013,0.0326 0,0.0521 -0.007,0.013 -0.0195,0.013 -0.013,0.007 -0.026,0 -0.013,-0.007 -0.0326,-0.0325 -0.345,-0.60537 -0.6249,-0.98942 -0.2799,-0.38405 -0.52726,-0.59886 -0.24084,-0.22132 -0.48169,-0.30594 -0.24084,-0.0846 -0.51424,-0.0846 h -2.03742 v 8.62488 q 0,0.13019 0.0781,0.20179 0.0846,0.0651 0.24085,0.0651 h 1.78356 q 0.37754,0 0.6965,-0.18226 0.32547,-0.18227 0.68999,-0.71603 0.36452,-0.54028 0.86574,-1.59479 0.026,-0.0326 0.0391,-0.0456 0.013,-0.013 0.0326,-0.007 0.0195,0 0.026,0.026 0.007,0.0195 -0.007,0.0651 l -0.64442,2.62978 q -0.0195,0.0781 -0.0325,0.0976 -0.013,0.026 -0.026,0.026 -0.0456,0 -0.13018,-0.0456 -0.0781,-0.0456 -0.21481,-0.0976 -0.13019,-0.0456 -0.345,-0.0456 h -5.24002 q -0.026,0 -0.0391,-0.013 -0.013,-0.013 -0.013,-0.026 0,-0.0326 0.0651,-0.0391 l 0.60537,-0.0911 q 0.11717,-0.013 0.16925,-0.0521 0.0586,-0.0391 0.0586,-0.11717 v -8.43612 q 0,-0.0781 -0.0586,-0.11717 -0.0521,-0.0391 -0.16925,-0.0521 l -0.60537,-0.0911 q -0.0651,-0.007 -0.0651,-0.0391 z m 16.71385,9.21073 q -0.6314,0 -1.03498,-0.17575 -0.40358,-0.17575 -0.6249,-0.3515 -0.22132,-0.18227 -0.30594,-0.18227 -0.0391,0 -0.11717,0.11066 -0.0716,0.11066 -0.16273,0.25387 -0.0846,0.1432 -0.16925,0.24735 -0.0781,0.11066 -0.12367,0.11066 -0.026,0 -0.0586,-0.026 -0.0325,-0.0195 -0.0456,-0.0586 l -0.52075,-2.59723 q 0,-0.0326 0,-0.0521 0,-0.0195 0.013,-0.026 0.013,-0.013 0.0325,0 0.0195,0.013 0.0326,0.039 0.45566,0.99593 0.94386,1.56225 0.4882,0.56631 1.00244,0.80065 0.51423,0.23433 1.048,0.23433 0.74207,0 1.19121,-0.41659 0.44915,-0.42311 0.44915,-1.19772 0,-0.46868 -0.20179,-0.86575 -0.19528,-0.40358 -0.67697,-0.75508 -0.47519,-0.35151 -1.31489,-0.65745 -0.98942,-0.37103 -1.58178,-0.79414 -0.59235,-0.42311 -0.85272,-0.93084 -0.26037,-0.51423 -0.26037,-1.13913 0,-0.74858 0.36452,-1.31489 0.37103,-0.56631 1.00895,-0.87876 0.63792,-0.31896 1.43857,-0.31896 0.59235,0 0.96989,0.14971 0.37754,0.14972 0.59235,0.29943 0.21481,0.14972 0.30594,0.14972 0.0716,0 0.19528,-0.14972 0.13019,-0.15622 0.25386,-0.30593 0.12368,-0.15623 0.17576,-0.15623 0.0195,0 0.0391,0.013 0.026,0.013 0.0325,0.0586 l 0.67697,2.64931 q 0.007,0.026 0.007,0.0456 0,0.0195 -0.0195,0.0326 -0.013,0.007 -0.0325,-0.007 -0.0195,-0.013 -0.0326,-0.0325 -0.4882,-1.00895 -0.98291,-1.58178 -0.4882,-0.57933 -1.01546,-0.81367 -0.52075,-0.24084 -1.09357,-0.24084 -0.75509,0 -1.2498,0.46867 -0.4882,0.46217 -0.4882,1.30838 0,0.48169 0.19528,0.89178 0.19528,0.41009 0.65745,0.76811 0.46216,0.35801 1.27583,0.66395 1.03499,0.38405 1.62734,0.81367 0.59886,0.42311 0.84621,0.91131 0.24736,0.4882 0.24736,1.06753 0,0.66395 -0.31245,1.20423 -0.31245,0.54028 -0.91131,0.85923 -0.59235,0.31245 -1.43206,0.31245 z m 10.17196,-9.24978 h 5.38974 q 0.11717,0 0.22782,-0.0456 0.11066,-0.0521 0.18878,-0.0976 0.0846,-0.0456 0.11716,-0.0456 0.013,0 0.026,0.0195 0.013,0.0195 0.0325,0.10415 l 0.41009,2.29129 q 0.013,0.0391 0.007,0.0651 -0.007,0.026 -0.026,0.026 -0.0195,0.007 -0.0391,-0.007 -0.013,-0.013 -0.026,-0.0456 -0.35151,-0.92433 -0.65094,-1.38649 -0.29943,-0.46867 -0.59235,-0.61839 -0.29292,-0.15622 -0.60537,-0.15622 h -1.05451 v 8.67045 q 0,0.0781 0.0521,0.11717 0.0586,0.039 0.17575,0.0521 l 0.60537,0.0911 q 0.0651,0.007 0.0651,0.0391 0,0.0391 -0.0521,0.0391 h -3.03336 q -0.026,0 -0.0391,-0.013 -0.013,-0.013 -0.013,-0.026 0,-0.0326 0.0651,-0.0391 l 0.60537,-0.0911 q 0.11717,-0.013 0.16925,-0.0521 0.0586,-0.0391 0.0586,-0.11717 v -8.67045 h -1.05451 q -0.31896,0 -0.61188,0.17575 -0.28642,0.16924 -0.58585,0.63792 -0.29943,0.46216 -0.65093,1.34743 -0.007,0.0325 -0.026,0.0456 -0.0195,0.013 -0.0391,0.007 -0.0195,0 -0.026,-0.026 0,-0.026 0.007,-0.0651 l 0.41009,-2.29129 q 0.0195,-0.0846 0.0325,-0.10415 0.013,-0.0195 0.026,-0.0195 0.026,0 0.0911,0.0456 0.0651,0.0456 0.15623,0.0976 0.0976,0.0456 0.2083,0.0456 z m 13.55683,5.59153 h 3.40439 l 0.0195,0.11066 h -3.45647 z m 0.16273,3.4825 q 0,0.013 -0.013,0.026 -0.007,0.013 -0.026,0.013 h -1.86819 q -0.0195,0 -0.0325,-0.013 -0.013,-0.013 -0.013,-0.026 0,-0.0195 0.0195,-0.026 0.013,-0.013 0.0325,-0.013 l 0.29943,-0.0911 q 0.17575,-0.0586 0.345,-0.23433 0.16924,-0.18226 0.29292,-0.60537 l 2.24572,-7.50528 q 0.0586,-0.19528 -0.013,-0.31245 -0.0651,-0.11717 -0.27991,-0.17575 -0.0521,-0.0326 -0.0846,-0.0456 -0.026,-0.013 -0.026,-0.026 0,-0.026 0.013,-0.0325 0.013,-0.007 0.0391,-0.007 h 2.05044 q 0.026,0 0.0391,0.007 0.013,0.007 0.013,0.0325 0,0.013 -0.026,0.0326 -0.026,0.013 -0.0846,0.0326 -0.18877,0.013 -0.22783,0.0716 -0.0325,0.0521 0.0195,0.20179 l 2.67534,8.31895 q 0.0521,0.16273 0.16274,0.24084 0.11066,0.0781 0.2799,0.0911 0.0325,0.007 0.0456,0.0195 0.013,0.007 0.013,0.026 0,0.013 -0.013,0.026 -0.007,0.013 -0.0325,0.013 h -2.44101 q -0.0195,0 -0.0325,-0.013 -0.013,-0.013 -0.013,-0.026 0,-0.0195 0.0195,-0.026 0.0195,-0.007 0.0456,-0.013 l 0.35151,-0.0391 q 0.14971,-0.0326 0.18877,-0.11717 0.0391,-0.0911 -0.007,-0.22783 l -2.59723,-8.1497 0.13018,-0.23434 -2.34336,7.85679 q -0.0716,0.23433 -0.0195,0.40358 0.0521,0.16924 0.20179,0.2799 0.14971,0.10415 0.37103,0.16273 l 0.24736,0.0651 q 0.026,0.007 0.039,0.0195 0.013,0.007 0.013,0.0195 z m 15.61378,0.17575 q -0.63141,0 -1.03499,-0.17575 -0.40358,-0.17575 -0.62489,-0.3515 -0.22132,-0.18227 -0.30594,-0.18227 -0.0391,0 -0.11717,0.11066 -0.0716,0.11066 -0.16273,0.25387 -0.0846,0.1432 -0.16925,0.24735 -0.0781,0.11066 -0.12368,0.11066 -0.026,0 -0.0586,-0.026 -0.0325,-0.0195 -0.0456,-0.0586 l -0.52075,-2.59723 q 0,-0.0326 0,-0.0521 0,-0.0195 0.013,-0.026 0.013,-0.013 0.0325,0 0.0195,0.013 0.0325,0.039 0.45565,0.99593 0.94385,1.56225 0.48821,0.56631 1.00244,0.80065 0.51424,0.23433 1.04801,0.23433 0.74207,0 1.19121,-0.41659 0.44915,-0.42311 0.44915,-1.19772 0,-0.46868 -0.20179,-0.86575 -0.19528,-0.40358 -0.67698,-0.75508 -0.47518,-0.35151 -1.31488,-0.65745 -0.98943,-0.37103 -1.58178,-0.79414 -0.59235,-0.42311 -0.85272,-0.93084 -0.26038,-0.51423 -0.26038,-1.13913 0,-0.74858 0.36453,-1.31489 0.37103,-0.56631 1.00895,-0.87876 0.63791,-0.31896 1.43856,-0.31896 0.59235,0 0.9699,0.14971 0.37754,0.14972 0.59235,0.29943 0.21481,0.14972 0.30594,0.14972 0.0716,0 0.19528,-0.14972 0.13018,-0.15622 0.25386,-0.30593 0.12368,-0.15623 0.17575,-0.15623 0.0195,0 0.0391,0.013 0.026,0.013 0.0325,0.0586 l 0.67697,2.64931 q 0.007,0.026 0.007,0.0456 0,0.0195 -0.0195,0.0326 -0.013,0.007 -0.0325,-0.007 -0.0195,-0.013 -0.0325,-0.0325 -0.4882,-1.00895 -0.98291,-1.58178 -0.48821,-0.57933 -1.01546,-0.81367 -0.52075,-0.24084 -1.09357,-0.24084 -0.75509,0 -1.2498,0.46867 -0.4882,0.46217 -0.4882,1.30838 0,0.48169 0.19528,0.89178 0.19528,0.41009 0.65744,0.76811 0.46217,0.35801 1.27584,0.66395 1.03498,0.38405 1.62733,0.81367 0.59887,0.42311 0.84622,0.91131 0.24736,0.4882 0.24736,1.06753 0,0.66395 -0.31245,1.20423 -0.31245,0.54028 -0.91131,0.85923 -0.59235,0.31245 -1.43206,0.31245 z"
       id="text8-8"
       inkscape:label="FESTAS"
       aria-label="FESTAS" /></g><g
     inkscape:groupmode="layer"
     id="layer2"
     inkscape:label="Círculo Amarelo"
     style="display:inline"
     transform="translate(-20.582275,-57.985733)"><circle
       style="fill:#c9a84c;fill-opacity:1;stroke-width:0.189538"
       id="path1"
       cx="70.618744"
       cy="102.30151"
       r="41.240898" /></g><g
     inkscape:groupmode="layer"
     id="layer3"
     inkscape:label="Desenho de Dentro &quot;E&quot;"
     style="display:inline"
     transform="translate(-20.582275,-57.985733)"><path
       id="path2"
       style="display:inline;fill:#815918;fill-opacity:1;stroke-width:0.189538"
       d="m 77.983172,92.123427 c -0.03604,0.136697 -0.07655,0.284297 -0.121798,0.441274 0.01433,-0.04004 0.02586,-0.0757 0.03446,-0.106616 0.02758,-0.09922 0.05738,-0.214273 0.08737,-0.334658 z m -0.121798,0.441274 c -0.20607,0.576095 -0.997934,2.069009 -2.1597,3.700439 -1.242516,1.74481 -2.828665,2.907926 -4.361982,4.17688 -1.53331,1.26894 -8.221915,5.36657 -10.601198,7.24355 -2.379283,1.877 -4.150495,4.7584 -5.128646,6.37102 -0.978148,1.61263 -1.401203,4.46793 -1.269021,6.50353 0.132183,2.03562 0.661141,2.80222 0.793324,3.1459 0.132181,0.34368 -0.238069,0.66099 -0.872544,1.26902 -0.634477,0.60804 -1.586285,1.00446 -2.352943,1.11022 -0.766659,0.10574 -1.876876,0.10587 -1.876876,0.10587 l 0.02666,0.79295 40.051114,0.0267 2.934522,-16.1526 h -0.97842 c 0,0 -0.211335,0.97802 -0.475696,1.87687 -0.264367,0.89884 -1.057334,3.30456 -3.225123,5.76316 -2.167789,2.45859 -3.780479,3.11944 -5.816091,4.04472 -2.035604,0.92529 -4.256324,0.97805 -5.498839,0.97805 -1.242517,0 -9.252586,0.0529 -9.252586,0.0529 l -0.02665,-18.84908 h 8.486288 c 0.793096,0 1.295353,0.13216 2.696488,0.44941 1.401132,0.31724 3.463021,1.85055 4.123939,3.7804 0.660913,1.92987 0.687447,3.88628 0.687447,3.88628 l 0.792953,-0.0267 0.07922,-19.298494 -0.845892,-0.02665 c 0,0 -0.132178,1.79801 -0.449412,3.14627 -0.317236,1.348258 -0.845836,1.903153 -1.559622,2.66982 -0.713787,0.766644 -1.401055,1.321814 -2.511387,1.665494 -1.110331,0.34368 -2.088622,0.44964 -3.304703,0.47606 -1.216075,0.0265 -4.679232,0.0527 -4.679232,0.0527 0,0 3.278069,-2.564191 4.811387,-4.890603 0.874345,-1.326598 1.439186,-2.919705 1.763227,-4.043985 z M 65.388851,108.31601 c 0.03176,6.2e-4 0.06528,0.003 0.100323,0.006 0.560802,0.0561 0.747598,0.39244 0.728909,0.80369 -0.01869,0.41125 -0.448528,0.69169 -0.990635,0.56085 -0.542108,-0.13087 -0.579722,-0.63563 -0.579722,-0.63563 0,0 -1.046809,-0.16805 -2.336655,0.0937 -1.289846,0.26171 -2.916005,1.4767 -2.916005,1.4767 0,0 1.084041,-1.533 2.766448,-1.94426 1.682406,-0.41124 2.635769,-0.0744 2.635769,-0.0744 0,0 0.115106,-0.29579 0.591568,-0.28653 z m -4.264616,3.72118 c 0.663615,-0.005 1.186861,0.13549 1.56073,0.21026 0.747735,0.14956 2.205977,0.78519 2.205977,0.78519 0,0 -1.159148,1.71997 -2.243367,2.57987 -1.084219,0.85989 -2.50482,1.1213 -3.92552,1.00915 -1.420699,-0.11217 -1.607748,-0.22399 -1.645135,-0.41092 -0.03739,-0.18693 0.747878,-1.08432 2.01903,-1.53297 1.271154,-0.44863 2.542112,-0.82257 2.542112,-0.82257 0,0 -1.607456,0.0561 -2.72906,0.52345 -1.121605,0.46734 -2.692039,1.53297 -2.692039,1.53297 0,0 0.635752,-2.20605 2.505092,-3.21549 0.934671,-0.50472 1.738564,-0.65426 2.40218,-0.65894 z m -5.281167,4.51006 v 3.14034 c 0,1.7198 -0.299114,2.87862 -0.299114,2.87862 0,0 -0.373527,-0.85973 -0.410915,-2.80385 -0.03738,-1.94411 0.710029,-3.21511 0.710029,-3.21511 z"
       inkscape:label="E BAIXO" /></g><g
     inkscape:groupmode="layer"
     id="layer5"
     inkscape:label="FOLHA 2"
     style="display:inline"
     transform="translate(-20.582275,-57.985733)"><path
       id="path7"
       style="display:inline;fill:#815918;fill-opacity:1;stroke-width:0.189538"
       d="m 88.338193,77.495275 c 0,0 -0.581653,0.21122 -2.167846,0.687081 -1.586185,0.475853 -4.864334,0.581567 -4.864334,0.581567 H 49.793754 v 1.004703 c 0,0 3.225315,-0.264181 4.600012,1.057643 1.374696,1.321818 1.374894,3.225066 1.374894,3.489434 0,1.004582 0.158442,27.493817 0.158442,27.493817 0,0 1.057421,-1.95625 2.696482,-3.59531 0.231135,-0.23114 0.497101,-0.46959 0.78814,-0.71188 -0.07913,0.0369 -0.126442,0.0509 -0.126976,0.0511 0,0 1.110224,-1.53326 1.427461,-2.37924 0.317239,-0.84596 0.396478,-2.24707 0.396478,-2.24707 0,0 -0.555049,-0.0529 -0.660794,-0.50234 -0.105746,-0.44942 5.9e-5,-0.84608 0.502351,-1.0047 0.502293,-0.15862 0.713795,0.39655 0.766668,0.76666 0.05287,0.37011 -0.185095,0.63452 -0.185095,0.63452 0,0 0.07925,1.00464 -0.05294,1.71843 -0.132185,0.71378 -0.845882,1.8242 -1.295303,2.35294 -1.83e-4,2.1e-4 -1.83e-4,5.3e-4 -3.71e-4,7.2e-4 0.233562,-0.17618 0.475894,-0.35255 0.723727,-0.52827 -0.159036,0.0887 -0.240625,0.12475 -0.240625,0.12475 0,0 2.878696,-2.2803 4.0003,-6.2433 1.121605,-3.962994 0.112129,-5.682866 -0.448675,-6.430603 -0.5608,-0.747734 -1.794441,-1.757288 -3.514236,-1.532965 -1.719792,0.224315 -2.729432,1.645228 -2.766818,2.991154 -0.03739,1.345926 0.859992,1.943891 1.383408,2.093438 0.523416,0.149546 1.271242,0.07475 1.271242,0.07475 0,0 -0.672997,-0.373942 -0.486063,-1.084297 0.186934,-0.710343 0.485738,-0.747786 1.121313,-0.710395 0.635576,0.03737 0.897322,0.897393 0.560842,1.570353 -0.336483,0.672958 -1.009207,0.972136 -1.906492,0.934731 -0.897282,-0.03733 -2.019067,-0.261849 -2.579871,-2.131191 -0.560802,-1.869342 0.673061,-3.289932 1.420799,-3.738571 0.747736,-0.448645 2.617021,-1.196396 4.486362,-0.224337 1.869341,0.972058 2.542495,2.76655 2.729429,4.149855 0.186932,1.383312 -0.112215,3.589121 -0.785179,5.121978 -0.672962,1.53287 -1.346105,2.91645 -2.57987,3.88851 -0.05354,0.0422 -0.105915,0.0829 -0.157332,0.12254 1.1173,-0.73084 2.20615,-1.3955 2.975977,-1.88539 1.744809,-1.11033 3.383933,-2.00904 3.383933,-2.00904 l -0.898831,-0.0529 -0.158812,-0.0529 V 82.148173 h 10.09885 c 0,0 1.163256,-0.105679 2.167845,0.05294 1.004582,0.158619 3.066398,0.581705 4.652584,1.903529 1.586191,1.321825 2.485295,3.066506 2.643913,4.441198 0.158617,1.374699 0.317257,3.119616 0.317257,3.119616 l 0.792945,-0.105878 z"
       inkscape:label="E CIMA" /></g><g
     inkscape:groupmode="layer"
     id="layer4"
     inkscape:label="FOLHA 1"
     transform="translate(-20.582275,-57.985733)"><path
       style="fill:#815918;fill-opacity:1;stroke-width:0.189538"
       d="m 54.367417,114.21538 c 0,0 0.74022,-2.37928 -0.07931,-4.12408 -0.81953,-1.74482 -2.273535,-3.09307 -3.780415,-3.75399 -1.506877,-0.66091 -2.828703,-0.89883 -2.828703,-0.89883 0,0 -0.07931,1.82412 0.343675,3.72754 0.422984,1.90342 1.55975,2.93445 2.458592,3.64823 0.898839,0.71378 3.013757,1.55976 3.013757,1.55976 0,0 -0.237927,-1.85056 -1.242514,-3.51606 -1.004586,-1.66549 -2.00917,-2.59077 -2.00917,-2.59077 0,0 1.982733,1.21608 2.722955,2.37928 0.740222,1.16321 0.89884,1.74481 1.083895,2.37928 0.185055,0.63448 0.317238,1.18964 0.317238,1.18964 z"
       id="path3"
       inkscape:label="FOLHA ESQUERDA" /><path
       style="fill:#815918;fill-opacity:1;stroke-width:0.189538"
       d="m 73.560298,97.454666 c 0,0 1.506877,-1.321821 1.242508,-3.251685 -0.26436,-1.929862 -1.480442,-2.696524 -1.480442,-2.696524 0,0 -1.163199,1.216081 -1.216074,2.775832 -0.05287,1.559749 1.004588,2.98732 1.004588,2.98732 0,0 0.422979,-0.845966 0.422979,-1.956299 0,-1.110329 0,-1.665499 0,-1.665499 0,0 0.396551,0.951714 0.343676,1.718368 -0.05287,0.766666 -0.317235,2.088487 -0.317235,2.088487 z"
       id="path4"
       inkscape:label="FOLHA CIMA ESQUERDA" /><path
       style="display:inline;fill:#815918;fill-opacity:1;stroke-width:0.189538"
       d="m 77.049911,96.450081 c 0,0 0.845963,-1.824122 2.352847,-1.824122 1.506876,0 2.617207,0.660922 2.617207,0.660922 0,0 -0.951713,1.136762 -2.062045,1.771236 -1.110332,0.634476 -2.987318,-0.05285 -2.987318,-0.05285 0,0 0.449419,-0.502295 1.057456,-0.713786 0.608037,-0.211491 1.216075,-0.343676 1.216075,-0.343676 0,0 -0.766654,0 -1.242509,0.105746 -0.47586,0.105745 -0.951713,0.396552 -0.951713,0.396552 z"
       id="path5"
       inkscape:label="folha direita" /><path
       style="fill:#815918;fill-opacity:1;stroke-width:0.189538"
       d="m 79.006206,89.444411 c 0,0 0.02643,-0.71378 0.502295,-1.110331 0.47586,-0.396545 1.242516,-0.502295 1.242516,-0.502295 0,0 -0.793097,-0.158617 -1.295392,-0.608037 -0.502287,-0.44942 -0.502287,-1.348258 -0.502287,-1.348258 0,0 -0.10575,0.951714 -0.502294,1.427567 -0.396551,0.475861 -1.401133,0.475861 -1.401133,0.475861 0,0 0.951713,0.211492 1.348258,0.608037 0.396551,0.396544 0.608037,1.057456 0.608037,1.057456 z"
       id="path6"
       inkscape:label="BRILHO" /></g></svg>
